# xmcd
#
# Track frame offsets:
#	150
#	26635
#	45165
#	63795
#	81970
#	98510
#	118507
#	139380
#	157967
#	177220
#	198122
#	216827
#	238652
#
# Disc length: 3431 seconds
#
# Revision: 1
# Processed by: cddbd v1.5.1PL0 Copyright (c) Steve Scherf et al.
# Submitted via: CDex 1.50Beta5
#
DISCID=a10d650d
DTITLE=金田たつえ - ツイン・パック/金沢情話 Disc 2
DYEAR=1996
DGENRE=World
TTITLE0=父娘坂
TTITLE1=男惚れ
TTITLE2=酒よ
TTITLE3=蟹工船
TTITLE4=お吉物語
TTITLE5=命くれない
TTITLE6=夫婦坂
TTITLE7=祝い酒
TTITLE8=流恋草
TTITLE9=蛍
TTITLE10=雨夜酒
TTITLE11=酔歌
TTITLE12=おんなの宿
EXTD=
EXTT0=
EXTT1=
EXTT2=
EXTT3=
EXTT4=
EXTT5=
EXTT6=
EXTT7=
EXTT8=
EXTT9=
EXTT10=
EXTT11=
EXTT12=
PLAYORDER=
